#!OML:ASF H:\Dans Jumps\Project 1\Capture day 1\Session 1\subject.ASF
:FULLY-SPECIFIED
:DEGREES
205
root 0.539289 15.622 -13.0285 27.2569 -0.0967856 -2.90138
lowerback 27.4214 0.874644 -1.02335
upperback -0.399406 1.2636 2.84493
thorax -15.2603 0.755428 3.1849
lowerneck -24.0757 -0.329468 -1.66617
upperneck 5.1479 -0.0156316 0.626801
head 5.33173 0.00311405 0.46351
rclavicle -3.97569e-016 -1.80894e-014
rhumerus -27.1824 -1.64593 -73.343
rradius 48.4239
rwrist 23.2777
rhand -21.1624 -24.8661
rfingers 7.12502
rthumb 5.21753 -54.7818
lclavicle -3.97569e-016 -1.80894e-014
lhumerus -26.7201 -6.43334 78.2754
lradius 31.6123
lwrist 19.0861
lhand -30.0272 -11.2669
lfingers 7.12502
lthumb -3.34374 18.6866
rfemur -54.6687 -2.37279 23.0689
rtibia 64.8264
rfoot -29.8711 -17.3229
rtoes -15.4326
lfemur -55.7487 6.2991 -17.7094
ltibia 66.4753
lfoot -24.148 21.2733
ltoes -25.7228
206
root 0.54297 15.8065 -12.7964 26.0381 -0.174135 -2.8765
lowerback 26.664 0.832954 -1.03013
upperback -0.26902 1.19647 2.71588
thorax -15.4388 0.763796 3.30457
lowerneck -23.6678 -0.402679 -1.74776
upperneck 6.63813 -0.105449 0.700085
head 5.75491 -0.0429176 0.491516
rclavicle -5.56597e-015 -1.68967e-014
rhumerus -27.118 -0.715535 -73.2193
rradius 51.0827
rwrist 22.5755
rhand -21.2598 -25.0236
rfingers 7.12502
rthumb 5.12352 -54.9416
lclavicle -5.56597e-015 -1.68967e-014
lhumerus -26.7521 -7.84849 77.99
lradius 33.6299
lwrist 20.9733
lhand -30.1828 -11.4962
lfingers 7.12502
lthumb -3.49399 18.455
rfemur -51.1747 -2.72441 22.982
rtibia 62.5582
rfoot -29.1764 -16.7571
rtoes -16.2083
lfemur -52.4574 6.6416 -17.7685
ltibia 64.5433
lfoot -23.2784 20.6872
ltoes -26.119
207
root 0.547018 15.997 -12.5551 24.8458 -0.283116 -2.82065
lowerback 25.7051 0.803368 -1.04755
upperback -0.475979 1.14971 2.68011
thorax -15.1418 0.741732 3.28556
lowerneck -23.067 -0.474549 -1.84974
upperneck 8.04794 -0.19246 0.766627
head 6.12386 -0.0888386 0.520872
rclavicle -3.97569e-015 -7.95139e-016
rhumerus -27.2354 0.0643682 -73.0407
rradius 53.5871
rwrist 21.7533
rhand -21.485 -25.0686
rfingers 7.12502
rthumb 4.90608 -54.9918
lclavicle -3.97569e-015 -7.95139e-016
lhumerus -26.8824 -9.15696 77.6486
lradius 35.5168
lwrist 23.1112
lhand -30.1719 -11.7642
lfingers 7.12502
lthumb -3.48347 18.1871
rfemur -47.682 -3.18754 22.88
rtibia 60.1924
rfoot -28.2848 -16.0125
rtoes -16.9276
lfemur -49.1534 7.12176 -17.9013
ltibia 62.4952
lfoot -22.2766 19.91
ltoes -26.4823
208
root 0.551243 16.1012 -12.3187 23.692 -0.418997 -2.73344
lowerback 24.5658 0.781079 -1.07653
upperback -0.685693 1.10483 2.61567
thorax -14.7398 0.71825 3.23725
lowerneck -22.2705 -0.532116 -1.95714
upperneck 9.38255 -0.267472 0.847247
head 6.43751 -0.12824 0.557261
rclavicle 5.96354e-015 3.73715e-014
rhumerus -27.4931 0.777942 -72.834
rradius 55.8009
rwrist 20.9825
rhand -21.7561 -24.9831
rfingers 7.12502
rthumb 4.64431 -54.9122
lclavicle 5.96354e-015 3.73715e-014
lhumerus -27.1074 -10.4193 77.2604
lradius 37.201
lwrist 25.345
lhand -30.0659 -12.0314
lfingers 7.12502
lthumb -3.38112 17.9216
rfemur -44.57 -3.77258 22.7372
rtibia 58.0973
rfoot -27.1735 -15.0556
rtoes -17.6789
lfemur -46.2149 7.74718 -18.0646
ltibia 60.6803
lfoot -21.1485 18.8842
ltoes -26.8482
209
root 0.55479 16.313 -12.0573 22.587 -0.582461 -2.62212
lowerback 23.2175 0.76275 -1.12342
upperback -0.888028 1.05705 2.5251
thorax -14.2028 0.691456 3.16856
lowerneck -21.2906 -0.565954 -2.05633
upperneck 10.6448 -0.324515 0.955286
head 6.69652 -0.156584 0.603774
rclavicle -4.77083e-015 1.31198e-014
rhumerus -27.8279 1.49553 -72.615
rradius 57.6164
rwrist 20.4153
rhand -21.9558 -24.8024
rfingers 7.12502
rthumb 4.45141 -54.7356
lclavicle -4.77083e-015 1.31198e-014
lhumerus -27.4205 -11.7013 76.8408
lradius 38.6356
lwrist 27.4564
lhand -29.948 -12.3218
lfingers 7.12502
lthumb -3.26724 17.6329
rfemur -41.067 -4.45197 22.5485
rtibia 55.4904
rfoot -25.8225 -13.8476
rtoes -18.4118
lfemur -42.8246 8.50815 -18.2336
ltibia 58.2651
lfoot -19.8732 17.5837
ltoes -27.2577
210
root 0.557878 16.5329 -11.7845 21.5376 -0.770149 -2.49704
lowerback 21.664 0.743608 -1.18057
upperback -1.0829 1.00414 2.4096
thorax -13.5317 0.659982 3.07826
lowerneck -20.169 -0.571796 -2.12886
upperneck 11.8786 -0.36197 1.08613
head 6.9201 -0.17275 0.656275
rclavicle 1.08338e-014 1.09332e-014
rhumerus -28.2055 2.26103 -72.3979
rradius 58.9836
rwrist 20.1217
rhand -21.9893 -24.6142
rfingers 7.12502
rthumb 4.41908 -54.5481
lclavicle 1.08338e-014 1.09332e-014
lhumerus -27.8346 -13.0834 76.4051
lradius 39.8095
lwrist 29.2379
lhand -29.8956 -12.5768
lfingers 7.12502
lthumb -3.21659 17.3787
rfemur -37.5973 -5.21541 22.2978
rtibia 52.7883
rfoot -24.1862 -12.3551
rtoes -19.1463
lfemur -39.41 9.40444 -18.3649
ltibia 55.6548
lfoot -18.4215 15.9597
ltoes -27.7084
211
root 0.560723 16.7616 -11.5002 20.5438 -0.974607 -2.37046
lowerback 19.9176 0.71936 -1.23291
upperback -1.26115 0.94671 2.27641
thorax -12.723 0.623416 2.96678
lowerneck -18.9548 -0.553768 -2.15843
upperneck 13.1155 -0.38316 1.2098
head 7.12549 -0.180158 0.701936
rclavicle 2.98177e-016 7.95139e-015
rhumerus -28.605 3.09019 -72.1868
rradius 59.9347
rwrist 20.0596
rhand -21.8525 -24.4604
rfingers 7.12502
rthumb 4.55117 -54.3915
lclavicle 2.98177e-016 7.95139e-015
lhumerus -28.3609 -14.6112 75.9729
lradius 40.7648
lwrist 30.5357
lhand -29.9287 -12.8015
lfingers 7.12502
lthumb -3.24859 17.1535
rfemur -34.0576 -6.0452 21.9827
rtibia 49.7213
rfoot -22.0411 -10.5198
rtoes -19.8252
lfemur -35.8719 10.4074 -18.4238
ltibia 52.5814
lfoot -16.5974 13.9176
ltoes -28.2149
212
root 0.564174 17.0005 -11.2041 19.6027 -1.19445 -2.26486
lowerback 17.9967 0.688783 -1.2517
upperback -1.40927 0.891525 2.13699
thorax -11.7731 0.583669 2.82955
lowerneck -17.7266 -0.529826 -2.1828
upperneck 14.3989 -0.401263 1.3361
head 7.34015 -0.185811 0.748631
rclavicle -4.87022e-015 -5.76476e-015
rhumerus -29.0178 3.98314 -71.9778
rradius 60.5559
rwrist 20.1071
rhand -21.574 -24.3826
rfingers 7.12502
rthumb 4.82008 -54.3077
lclavicle -4.87022e-015 -5.76476e-015
lhumerus -29.002 -16.2911 75.5578
lradius 41.5741
lwrist 31.3013
lhand -30.0265 -12.929
lfingers 7.12502
lthumb -3.34304 17.0246
rfemur -30.5529 -6.90795 21.6111
rtibia 46.5465
rfoot -19.4554 -8.3844
rtoes -20.3497
lfemur -32.2928 11.4609 -18.3709
ltibia 49.2799
lfoot -14.4619 11.5239
ltoes -28.7147
213
root 0.568614 17.2514 -10.8973 18.7173 -1.42072 -2.19949
lowerback 15.9372 0.65208 -1.20903
upperback -1.52262 0.843913 2.00183
thorax -10.7006 0.542944 2.66227
lowerneck -16.5079 -0.502847 -2.1831
upperneck 15.7059 -0.415345 1.4187
head 7.56113 -0.192406 0.778147
rclavicle 7.95139e-016 9.54166e-015
rhumerus -29.4636 4.92699 -71.7643
rradius 60.9727
rwrist 20.1238
rhand -21.2243 -24.3515
rfingers 7.12502
rthumb 5.15776 -54.2687
lclavicle 7.95139e-016 9.54166e-015
lhumerus -29.7713 -18.0802 75.1553
lradius 42.3696
lwrist 31.6175
lhand -30.0881 -12.7348
lfingers 7.12502
lthumb -3.40251 17.2177
rfemur -27.1108 -7.74989 21.1991
rtibia 43.2687
rfoot -16.2955 -6.02549
rtoes -20.5297
lfemur -28.6956 12.4684 -18.1734
ltibia 45.7572
lfoot -11.885 8.8215
ltoes -29.1526
214
root 0.574404 17.5168 -10.5814 17.8953 -1.65378 -2.16319
lowerback 13.7926 0.612487 -1.10982
upperback -1.60916 0.803201 1.87213
thorax -9.5489 0.50303 2.47076
lowerneck -15.3418 -0.479609 -2.18645
upperneck 17.0358 -0.427197 1.466
head 7.7967 -0.201416 0.797413
rclavicle -1.47101e-014 -2.38542e-015
rhumerus -29.9829 5.91268 -71.5389
rradius 61.319
rwrist 20.0131
rhand -20.95 -24.2567
rfingers 7.12502
rthumb 5.42266 -54.1673
lclavicle -1.47101e-014 -2.38542e-015
lhumerus -30.6953 -19.9226 74.76
lradius 43.2513
lwrist 31.5937
lhand -30.0638 -12.3159
lfingers 7.12502
lthumb -3.37904 17.6371
rfemur -23.7672 -8.48247 20.7297
rtibia 39.9026
rfoot -12.4168 -3.60705
rtoes -19.984
lfemur -25.1232 13.2874 -17.8474
ltibia 42.036
lfoot -8.66283 5.92576
ltoes -29.3718
215
root 0.581511 17.7983 -10.2588 17.1398 -1.89569 -2.15581
lowerback 11.6253 0.574946 -0.954964
upperback -1.67857 0.771592 1.74917
thorax -8.36763 0.466733 2.25741
lowerneck -14.2364 -0.457997 -2.19328
upperneck 18.3463 -0.432642 1.47793
head 8.03566 -0.210931 0.806689
rclavicle -7.70291e-015 1.2921e-014
rhumerus -30.6101 6.92891 -71.2979
rradius 61.7058
rwrist 19.744
rhand -20.7537 -24.091
rfingers 7.12502
rthumb 5.61218 -53.9967
lclavicle -7.70291e-015 1.2921e-014
lhumerus -31.7879 -21.7666 74.363
lradius 44.2886
lwrist 31.3991
lhand -29.9567 -11.8738
lfingers 7.12502
lthumb -3.27559 18.0808
rfemur -20.5689 -8.99541 20.2148
rtibia 36.4891
rfoot -7.65028 -1.5335
rtoes -18.3655
lfemur -21.6362 13.7646 -17.4121
ltibia 38.1737
lfoot -4.55806 3.0724
ltoes -29.3078
216
root 0.589485 18.0959 -9.9329 16.4543 -2.14799 -2.15297
lowerback 9.49199 0.542867 -0.771565
upperback -1.73882 0.745508 1.62513
thorax -7.19987 0.434608 2.03038
lowerneck -13.2153 -0.440247 -2.21065
upperneck 19.6061 -0.43538 1.47164
head 8.27292 -0.221545 0.812159
rclavicle 5.76476e-015 -1.13307e-014
rhumerus -31.3542 7.96078 -71.0438
rradius 62.2005
rwrist 19.3481
rhand -20.6197 -23.8569
rfingers 7.12502
rthumb 5.74155 -53.7592
lclavicle 5.76476e-015 -1.13307e-014
lhumerus -33.0361 -23.5566 73.9452
lradius 45.5034
lwrist 31.183
lhand -29.8187 -11.5928
lfingers 7.12502
lthumb -3.14241 18.3638
rfemur -17.5879 -9.20515 19.6587
rtibia 33.1225
rfoot -2.00777 -0.319145
rtoes -15.5301
lfemur -18.3194 13.7698 -16.937
ltibia 34.2768
lfoot 0.604488 0.633949
ltoes -28.5308
